<svg xmlns="http://www.w3.org/2000/svg" width="40" height="40" viewBox="0 0 40 40" fill="none" class="logo__icon"><path fill="#232A32" d="M20 40c11.046 0 20-8.954 20-20S31.046 0 20 0 0 8.954 0 20s8.954 20 20 20z"></path><path fill="url(#p0)" fill-rule="evenodd" d="M20.012 6.901c-1.44 0-2.566.566-3.31 1.485-.721.89-1.023 2.031-1.023 3.12 0 1.152.454 2.447 1.155 3.457.686.99 1.782 1.938 3.178 1.938 1.395 0 2.491-.944 3.179-1.933.701-1.01 1.155-2.305 1.155-3.462 0-1.086-.288-2.23-1.007-3.122-.744-.925-1.873-1.483-3.327-1.483zm-2.358 4.605c0-.75.211-1.418.583-1.877.348-.43.896-.752 1.775-.752.905 0 1.449.324 1.788.745.364.453.57 1.119.57 1.884 0 .695-.293 1.604-.801 2.335-.522.751-1.099 1.085-1.557 1.085-.456 0-1.032-.335-1.555-1.09-.51-.733-.803-1.642-.803-2.33z" clip-rule="evenodd"></path><path fill="url(#p1)" d="M13.422 21.364c-2.002-.222-3.657 1.38-3.657 3.019 0 1.63 1.286 3.11 3.704 3.11.87 0 1.758-.38 2.734-1.09 1.136-.828 2.079-1.8 3.023-2.775.946-.976 1.893-1.954 3.038-2.788 1.136-.826 2.433-1.47 3.896-1.47 3.336 0 5.68 2.2 5.68 5.087 0 2.879-2.74 5.326-5.85 4.982-1.248-.138-2.712-.56-3.89-1.707l1.38-1.415c.748.73 1.728 1.048 2.727 1.158 2.003.223 3.657-1.379 3.657-3.018 0-1.631-1.286-3.111-3.704-3.111-.869 0-1.757.38-2.733 1.091-1.136.828-2.079 1.8-3.023 2.774-.946.977-1.893 1.954-3.039 2.788-1.135.827-2.432 1.47-3.896 1.47-3.335 0-5.679-2.199-5.679-5.086 0-2.88 2.74-5.327 5.85-4.982 1.248.137 2.712.56 3.889 1.707l-1.379 1.414c-.748-.73-1.728-1.048-2.727-1.157h-.001z"></path><defs><linearGradient id="p0" x1="7.79" x2="35.86" y1="6.901" y2="14.379" gradientUnits="userSpaceOnUse"><stop stop-color="#9488F0"></stop><stop offset="1" stop-color="#3AEAB5"></stop></linearGradient><linearGradient id="p1" x1="7.79" x2="35.86" y1="6.901" y2="14.379" gradientUnits="userSpaceOnUse"><stop stop-color="#9488F0"></stop><stop offset="1" stop-color="#3AEAB5"></stop></linearGradient></defs></svg>