<svg width="375" height="148" viewBox="0 0 375 148" fill="none" xmlns="http://www.w3.org/2000/svg">
<path d="M7.24202 34.644C3.84663 39.0724 -3.55532 48.233 -6 49.4476V147H377V54.0026L366.814 46.0314L356.628 57.7984L344.914 39.199L336.255 57.7984L329.634 51.7251L326.578 62.733L306.715 19.4607L294.492 54.0026L288.38 41.856L279.722 54.0026V46.0314L273.61 54.0026L270.892 48.6885L268.517 54.0026L255.734 34.644L243.052 54.0026L233.501 44.1335L224.717 49.4476L216.827 20.9791L207.732 25.534L202.679 13.3874L197.627 19.4607L191.612 10.7304L187.537 51.7251L161.563 19.4607L148.83 51.7251L144.246 39.199L138.134 41.856L123.351 25.534L118.803 38.0602L112.16 57.7984L90.8412 26.6728L85.1662 41.856L71.4794 51.7251L51.5519 2L38.2857 41.856L26.159 19.4607L18.9561 49.4476L7.24202 34.644Z" fill="url(#paint0_linear_4_1519)" fill-opacity="0.6" stroke="#4CAF50"/>
<defs>
<linearGradient id="paint0_linear_4_1519" x1="185.5" y1="2" x2="185.5" y2="147" gradientUnits="userSpaceOnUse">
<stop stop-color="#4CAF50"/>
<stop offset="1" stop-opacity="0"/>
</linearGradient>
</defs>
</svg>
