<svg width="10" height="10" viewBox="0 0 10 10" fill="none" xmlns="http://www.w3.org/2000/svg">
<path d="M1.54871 9.29397C1.59057 9.2638 1.62972 9.23004 1.66572 9.19309L7.87631 2.98251L7.80387 3.18092C7.73415 3.37595 7.699 3.58164 7.69994 3.78875L7.69994 7.27196C7.68953 7.72029 8.00323 8.11107 8.4432 8.19787C8.92938 8.27303 9.38444 7.93984 9.45962 7.45364C9.46568 7.41435 9.46912 7.37469 9.46989 7.33495L9.46989 1.0362C9.47017 0.544228 9.07157 0.145202 8.5796 0.144926C8.57929 0.144926 8.57893 0.144926 8.57862 0.144926L2.27987 0.144925C1.78792 0.145613 1.38966 0.544973 1.39033 1.03695C1.39039 1.07566 1.39297 1.11434 1.39805 1.15272C1.48485 1.59269 1.87563 1.90639 2.32396 1.89598L5.80717 1.90228C5.9921 1.90237 6.17592 1.8737 6.35201 1.81724L6.62601 1.71331L0.440637 7.89868C0.106922 8.2085 0.0493866 8.71557 0.305215 9.09229C0.59291 9.49136 1.14962 9.58165 1.54871 9.29397Z" fill="#4CAF50"/>
</svg>
