<svg width="10" height="11" viewBox="0 0 10 11" fill="none" xmlns="http://www.w3.org/2000/svg">
<path d="M8.05815 1.11611C8.01629 1.14628 7.97714 1.18004 7.94113 1.21698L1.73046 7.42766L1.8029 7.22925C1.87262 7.03422 1.90777 6.82852 1.90683 6.62141L1.90682 3.13815C1.91724 2.68981 1.60354 2.29903 1.16356 2.21222C0.677369 2.13707 0.222298 2.47026 0.147125 2.95647C0.141063 2.99576 0.137618 3.03542 0.13685 3.07516L0.136853 9.374C0.136577 9.86598 0.535176 10.265 1.02715 10.2653C1.02747 10.2653 1.02782 10.2653 1.02814 10.2653L7.32698 10.2653C7.81894 10.2646 8.2172 9.86524 8.21653 9.37326C8.21648 9.33454 8.2139 9.29586 8.20882 9.25748C8.12201 8.8175 7.73123 8.5038 7.28289 8.51421L3.79963 8.50791C3.6147 8.50781 3.43087 8.53649 3.25478 8.59295L2.98078 8.69688L9.16624 2.51142C9.49996 2.20159 9.5575 1.69452 9.30166 1.31779C9.01396 0.918715 8.45725 0.828425 8.05815 1.11611Z" fill="#FF2000"/>
</svg>
