<svg width="383" height="145" viewBox="0 0 383 145" fill="none" xmlns="http://www.w3.org/2000/svg">
<path d="M13.242 32.644C9.84663 37.0724 2.44468 46.233 0 47.4476V145H383V52.0026L372.814 44.0314L362.628 55.7984L350.914 37.199L342.255 55.7984L335.634 49.7251L332.578 60.733L312.715 17.4607L300.492 52.0026L294.38 39.856L285.722 52.0026V44.0314L279.61 52.0026L276.892 46.6885L274.517 52.0026L261.734 32.644L249.052 52.0026L239.501 42.1335L230.717 47.4476L222.827 18.9791L213.732 23.534L208.679 11.3874L203.627 17.4607L197.612 8.7304L193.537 49.7251L167.563 17.4607L154.83 49.7251L150.246 37.199L144.134 39.856L129.351 23.534L124.803 36.0602L118.16 55.7984L96.8412 24.6728L91.1662 39.856L77.4794 49.7251L57.5519 0L44.2857 39.856L32.159 17.4607L24.9561 47.4476L13.242 32.644Z" fill="url(#paint0_linear_191_1310)" fill-opacity="0.6"/>
<defs>
<linearGradient id="paint0_linear_191_1310" x1="191.5" y1="0" x2="191.5" y2="145" gradientUnits="userSpaceOnUse">
<stop stop-color="#4CAF50"/>
<stop offset="1" stop-opacity="0"/>
</linearGradient>
</defs>
</svg>
